<?xml version="1.0" encoding="utf-8"?>
<svg xmlns="http://www.w3.org/2000/svg" xmlns:xlink="http://www.w3.org/1999/xlink" width="672" height="480" viewBox="0 0 2688 1920">
<defs>
  <clipPath id="clip610">
    <rect x="0" y="0" width="2688" height="1920"/>
  </clipPath>
</defs>
<path clip-path="url(#clip610)" d="M0 1920 L2688 1920 L2688 0 L0 0  Z" fill="#ffffff" fill-rule="evenodd" fill-opacity="1"/>
<defs>
  <clipPath id="clip611">
    <rect x="537" y="0" width="1883" height="1883"/>
  </clipPath>
</defs>
<path clip-path="url(#clip610)" d="M255.816 1734.12 L2640.76 1734.12 L2640.76 47.2441 L255.816 47.2441  Z" fill="#ffffff" fill-rule="evenodd" fill-opacity="1"/>
<defs>
  <clipPath id="clip612">
    <rect x="255" y="47" width="2386" height="1688"/>
  </clipPath>
</defs>
<polyline clip-path="url(#clip612)" style="stroke:#000000; stroke-linecap:round; stroke-linejoin:round; stroke-width:2; stroke-opacity:0.1; fill:none" points="277.397,1734.12 277.397,47.2441 "/>
<polyline clip-path="url(#clip612)" style="stroke:#000000; stroke-linecap:round; stroke-linejoin:round; stroke-width:2; stroke-opacity:0.1; fill:none" points="736.569,1734.12 736.569,47.2441 "/>
<polyline clip-path="url(#clip612)" style="stroke:#000000; stroke-linecap:round; stroke-linejoin:round; stroke-width:2; stroke-opacity:0.1; fill:none" points="1195.74,1734.12 1195.74,47.2441 "/>
<polyline clip-path="url(#clip612)" style="stroke:#000000; stroke-linecap:round; stroke-linejoin:round; stroke-width:2; stroke-opacity:0.1; fill:none" points="1654.91,1734.12 1654.91,47.2441 "/>
<polyline clip-path="url(#clip612)" style="stroke:#000000; stroke-linecap:round; stroke-linejoin:round; stroke-width:2; stroke-opacity:0.1; fill:none" points="2114.09,1734.12 2114.09,47.2441 "/>
<polyline clip-path="url(#clip612)" style="stroke:#000000; stroke-linecap:round; stroke-linejoin:round; stroke-width:2; stroke-opacity:0.1; fill:none" points="2573.26,1734.12 2573.26,47.2441 "/>
<polyline clip-path="url(#clip610)" style="stroke:#000000; stroke-linecap:round; stroke-linejoin:round; stroke-width:4; stroke-opacity:1; fill:none" points="255.816,1734.12 2640.76,1734.12 "/>
<polyline clip-path="url(#clip610)" style="stroke:#000000; stroke-linecap:round; stroke-linejoin:round; stroke-width:4; stroke-opacity:1; fill:none" points="277.397,1734.12 277.397,1715.22 "/>
<polyline clip-path="url(#clip610)" style="stroke:#000000; stroke-linecap:round; stroke-linejoin:round; stroke-width:4; stroke-opacity:1; fill:none" points="736.569,1734.12 736.569,1715.22 "/>
<polyline clip-path="url(#clip610)" style="stroke:#000000; stroke-linecap:round; stroke-linejoin:round; stroke-width:4; stroke-opacity:1; fill:none" points="1195.74,1734.12 1195.74,1715.22 "/>
<polyline clip-path="url(#clip610)" style="stroke:#000000; stroke-linecap:round; stroke-linejoin:round; stroke-width:4; stroke-opacity:1; fill:none" points="1654.91,1734.12 1654.91,1715.22 "/>
<polyline clip-path="url(#clip610)" style="stroke:#000000; stroke-linecap:round; stroke-linejoin:round; stroke-width:4; stroke-opacity:1; fill:none" points="2114.09,1734.12 2114.09,1715.22 "/>
<polyline clip-path="url(#clip610)" style="stroke:#000000; stroke-linecap:round; stroke-linejoin:round; stroke-width:4; stroke-opacity:1; fill:none" points="2573.26,1734.12 2573.26,1715.22 "/>
<path clip-path="url(#clip610)" d="M277.397 1767.34 Q273.786 1767.34 271.958 1770.9 Q270.152 1774.45 270.152 1781.58 Q270.152 1788.68 271.958 1792.25 Q273.786 1795.79 277.397 1795.79 Q281.032 1795.79 282.837 1792.25 Q284.666 1788.68 284.666 1781.58 Q284.666 1774.45 282.837 1770.9 Q281.032 1767.34 277.397 1767.34 M277.397 1763.64 Q283.208 1763.64 286.263 1768.24 Q289.342 1772.83 289.342 1781.58 Q289.342 1790.3 286.263 1794.91 Q283.208 1799.49 277.397 1799.49 Q271.587 1799.49 268.509 1794.91 Q265.453 1790.3 265.453 1781.58 Q265.453 1772.83 268.509 1768.24 Q271.587 1763.64 277.397 1763.64 Z" fill="#000000" fill-rule="nonzero" fill-opacity="1" /><path clip-path="url(#clip610)" d="M726.951 1794.89 L734.59 1794.89 L734.59 1768.52 L726.28 1770.19 L726.28 1765.93 L734.544 1764.26 L739.22 1764.26 L739.22 1794.89 L746.859 1794.89 L746.859 1798.82 L726.951 1798.82 L726.951 1794.89 Z" fill="#000000" fill-rule="nonzero" fill-opacity="1" /><path clip-path="url(#clip610)" d="M1190.39 1794.89 L1206.71 1794.89 L1206.71 1798.82 L1184.77 1798.82 L1184.77 1794.89 Q1187.43 1792.13 1192.01 1787.5 Q1196.62 1782.85 1197.8 1781.51 Q1200.05 1778.98 1200.93 1777.25 Q1201.83 1775.49 1201.83 1773.8 Q1201.83 1771.04 1199.88 1769.31 Q1197.96 1767.57 1194.86 1767.57 Q1192.66 1767.57 1190.21 1768.34 Q1187.78 1769.1 1185 1770.65 L1185 1765.93 Q1187.82 1764.79 1190.28 1764.21 Q1192.73 1763.64 1194.77 1763.64 Q1200.14 1763.64 1203.33 1766.32 Q1206.53 1769.01 1206.53 1773.5 Q1206.53 1775.63 1205.72 1777.55 Q1204.93 1779.45 1202.82 1782.04 Q1202.25 1782.71 1199.14 1785.93 Q1196.04 1789.12 1190.39 1794.89 Z" fill="#000000" fill-rule="nonzero" fill-opacity="1" /><path clip-path="url(#clip610)" d="M1659.16 1780.19 Q1662.52 1780.9 1664.39 1783.17 Q1666.29 1785.44 1666.29 1788.77 Q1666.29 1793.89 1662.77 1796.69 Q1659.25 1799.49 1652.77 1799.49 Q1650.6 1799.49 1648.28 1799.05 Q1645.99 1798.64 1643.54 1797.78 L1643.54 1793.27 Q1645.48 1794.4 1647.8 1794.98 Q1650.11 1795.56 1652.63 1795.56 Q1657.03 1795.56 1659.32 1793.82 Q1661.64 1792.08 1661.64 1788.77 Q1661.64 1785.72 1659.49 1784.01 Q1657.36 1782.27 1653.54 1782.27 L1649.51 1782.27 L1649.51 1778.43 L1653.72 1778.43 Q1657.17 1778.43 1659 1777.06 Q1660.83 1775.67 1660.83 1773.08 Q1660.83 1770.42 1658.93 1769.01 Q1657.05 1767.57 1653.54 1767.57 Q1651.61 1767.57 1649.42 1767.99 Q1647.22 1768.4 1644.58 1769.28 L1644.58 1765.12 Q1647.24 1764.38 1649.55 1764.01 Q1651.89 1763.64 1653.95 1763.64 Q1659.28 1763.64 1662.38 1766.07 Q1665.48 1768.47 1665.48 1772.59 Q1665.48 1775.46 1663.84 1777.46 Q1662.19 1779.42 1659.16 1780.19 Z" fill="#000000" fill-rule="nonzero" fill-opacity="1" /><path clip-path="url(#clip610)" d="M2117.09 1768.34 L2105.29 1786.78 L2117.09 1786.78 L2117.09 1768.34 M2115.87 1764.26 L2121.75 1764.26 L2121.75 1786.78 L2126.68 1786.78 L2126.68 1790.67 L2121.75 1790.67 L2121.75 1798.82 L2117.09 1798.82 L2117.09 1790.67 L2101.49 1790.67 L2101.49 1786.16 L2115.87 1764.26 Z" fill="#000000" fill-rule="nonzero" fill-opacity="1" /><path clip-path="url(#clip610)" d="M2563.54 1764.26 L2581.89 1764.26 L2581.89 1768.2 L2567.82 1768.2 L2567.82 1776.67 Q2568.84 1776.32 2569.85 1776.16 Q2570.87 1775.97 2571.89 1775.97 Q2577.68 1775.97 2581.06 1779.15 Q2584.44 1782.32 2584.44 1787.73 Q2584.44 1793.31 2580.97 1796.41 Q2577.49 1799.49 2571.17 1799.49 Q2569 1799.49 2566.73 1799.12 Q2564.48 1798.75 2562.08 1798.01 L2562.08 1793.31 Q2564.16 1794.45 2566.38 1795 Q2568.6 1795.56 2571.08 1795.56 Q2575.09 1795.56 2577.42 1793.45 Q2579.76 1791.34 2579.76 1787.73 Q2579.76 1784.12 2577.42 1782.02 Q2575.09 1779.91 2571.08 1779.91 Q2569.21 1779.91 2567.33 1780.33 Q2565.48 1780.74 2563.54 1781.62 L2563.54 1764.26 Z" fill="#000000" fill-rule="nonzero" fill-opacity="1" /><path clip-path="url(#clip610)" d="M1439.44 1861.02 Q1441.51 1861.72 1443.45 1864.01 Q1445.42 1866.3 1447.39 1870.31 L1453.92 1883.3 L1447.01 1883.3 L1440.93 1871.11 Q1438.58 1866.34 1436.35 1864.78 Q1434.15 1863.22 1430.33 1863.22 L1423.33 1863.22 L1423.33 1883.3 L1416.9 1883.3 L1416.9 1835.78 L1431.42 1835.78 Q1439.57 1835.78 1443.58 1839.19 Q1447.59 1842.59 1447.59 1849.47 Q1447.59 1853.96 1445.49 1856.92 Q1443.42 1859.88 1439.44 1861.02 M1423.33 1841.06 L1423.33 1857.93 L1431.42 1857.93 Q1436.06 1857.93 1438.42 1855.8 Q1440.81 1853.64 1440.81 1849.47 Q1440.81 1845.3 1438.42 1843.2 Q1436.06 1841.06 1431.42 1841.06 L1423.33 1841.06 Z" fill="#000000" fill-rule="nonzero" fill-opacity="1" /><path clip-path="url(#clip610)" d="M1473.94 1861.75 Q1472.35 1859.02 1469.13 1859.02 Q1465.92 1859.02 1464.33 1861.75 Q1462.7 1864.49 1462.7 1869.96 Q1462.7 1875.47 1464.33 1878.21 Q1465.92 1880.95 1469.13 1880.95 Q1472.35 1880.95 1473.94 1878.21 Q1475.56 1875.47 1475.56 1869.96 Q1475.56 1864.49 1473.94 1861.75 M1469.13 1856.18 Q1474.26 1856.18 1476.96 1859.72 Q1479.67 1863.25 1479.67 1869.96 Q1479.67 1876.71 1476.96 1880.25 Q1474.26 1883.78 1469.13 1883.78 Q1463.98 1883.78 1461.27 1880.25 Q1458.57 1876.71 1458.57 1869.96 Q1458.57 1863.25 1461.27 1859.72 Q1463.98 1856.18 1469.13 1856.18 Z" fill="#000000" fill-rule="nonzero" fill-opacity="1" /><polyline clip-path="url(#clip612)" style="stroke:#000000; stroke-linecap:round; stroke-linejoin:round; stroke-width:2; stroke-opacity:0.1; fill:none" points="255.816,1688.16 2640.76,1688.16 "/>
<polyline clip-path="url(#clip612)" style="stroke:#000000; stroke-linecap:round; stroke-linejoin:round; stroke-width:2; stroke-opacity:0.1; fill:none" points="255.816,1287.16 2640.76,1287.16 "/>
<polyline clip-path="url(#clip612)" style="stroke:#000000; stroke-linecap:round; stroke-linejoin:round; stroke-width:2; stroke-opacity:0.1; fill:none" points="255.816,886.168 2640.76,886.168 "/>
<polyline clip-path="url(#clip612)" style="stroke:#000000; stroke-linecap:round; stroke-linejoin:round; stroke-width:2; stroke-opacity:0.1; fill:none" points="255.816,485.173 2640.76,485.173 "/>
<polyline clip-path="url(#clip612)" style="stroke:#000000; stroke-linecap:round; stroke-linejoin:round; stroke-width:2; stroke-opacity:0.1; fill:none" points="255.816,84.1783 2640.76,84.1783 "/>
<polyline clip-path="url(#clip610)" style="stroke:#000000; stroke-linecap:round; stroke-linejoin:round; stroke-width:4; stroke-opacity:1; fill:none" points="255.816,1734.12 255.816,47.2441 "/>
<polyline clip-path="url(#clip610)" style="stroke:#000000; stroke-linecap:round; stroke-linejoin:round; stroke-width:4; stroke-opacity:1; fill:none" points="255.816,1688.16 274.714,1688.16 "/>
<polyline clip-path="url(#clip610)" style="stroke:#000000; stroke-linecap:round; stroke-linejoin:round; stroke-width:4; stroke-opacity:1; fill:none" points="255.816,1287.16 274.714,1287.16 "/>
<polyline clip-path="url(#clip610)" style="stroke:#000000; stroke-linecap:round; stroke-linejoin:round; stroke-width:4; stroke-opacity:1; fill:none" points="255.816,886.168 274.714,886.168 "/>
<polyline clip-path="url(#clip610)" style="stroke:#000000; stroke-linecap:round; stroke-linejoin:round; stroke-width:4; stroke-opacity:1; fill:none" points="255.816,485.173 274.714,485.173 "/>
<polyline clip-path="url(#clip610)" style="stroke:#000000; stroke-linecap:round; stroke-linejoin:round; stroke-width:4; stroke-opacity:1; fill:none" points="255.816,84.1783 274.714,84.1783 "/>
<path clip-path="url(#clip610)" d="M128.159 1673.96 Q124.548 1673.96 122.719 1677.52 Q120.913 1681.06 120.913 1688.19 Q120.913 1695.3 122.719 1698.86 Q124.548 1702.4 128.159 1702.4 Q131.793 1702.4 133.599 1698.86 Q135.427 1695.3 135.427 1688.19 Q135.427 1681.06 133.599 1677.52 Q131.793 1673.96 128.159 1673.96 M128.159 1670.25 Q133.969 1670.25 137.025 1674.86 Q140.103 1679.44 140.103 1688.19 Q140.103 1696.92 137.025 1701.53 Q133.969 1706.11 128.159 1706.11 Q122.349 1706.11 119.27 1701.53 Q116.214 1696.92 116.214 1688.19 Q116.214 1679.44 119.27 1674.86 Q122.349 1670.25 128.159 1670.25 Z" fill="#000000" fill-rule="nonzero" fill-opacity="1" /><path clip-path="url(#clip610)" d="M148.321 1699.56 L153.205 1699.56 L153.205 1705.44 L148.321 1705.44 L148.321 1699.56 Z" fill="#000000" fill-rule="nonzero" fill-opacity="1" /><path clip-path="url(#clip610)" d="M173.39 1673.96 Q169.779 1673.96 167.95 1677.52 Q166.145 1681.06 166.145 1688.19 Q166.145 1695.3 167.95 1698.86 Q169.779 1702.4 173.39 1702.4 Q177.024 1702.4 178.83 1698.86 Q180.659 1695.3 180.659 1688.19 Q180.659 1681.06 178.83 1677.52 Q177.024 1673.96 173.39 1673.96 M173.39 1670.25 Q179.2 1670.25 182.256 1674.86 Q185.334 1679.44 185.334 1688.19 Q185.334 1696.92 182.256 1701.53 Q179.2 1706.11 173.39 1706.11 Q167.58 1706.11 164.501 1701.53 Q161.446 1696.92 161.446 1688.19 Q161.446 1679.44 164.501 1674.86 Q167.58 1670.25 173.39 1670.25 Z" fill="#000000" fill-rule="nonzero" fill-opacity="1" /><path clip-path="url(#clip610)" d="M203.552 1673.96 Q199.941 1673.96 198.112 1677.52 Q196.307 1681.06 196.307 1688.19 Q196.307 1695.3 198.112 1698.86 Q199.941 1702.4 203.552 1702.4 Q207.186 1702.4 208.992 1698.86 Q210.82 1695.3 210.82 1688.19 Q210.82 1681.06 208.992 1677.52 Q207.186 1673.96 203.552 1673.96 M203.552 1670.25 Q209.362 1670.25 212.418 1674.86 Q215.496 1679.44 215.496 1688.19 Q215.496 1696.92 212.418 1701.53 Q209.362 1706.11 203.552 1706.11 Q197.742 1706.11 194.663 1701.53 Q191.608 1696.92 191.608 1688.19 Q191.608 1679.44 194.663 1674.86 Q197.742 1670.25 203.552 1670.25 Z" fill="#000000" fill-rule="nonzero" fill-opacity="1" /><path clip-path="url(#clip610)" d="M129.154 1272.96 Q125.543 1272.96 123.714 1276.53 Q121.909 1280.07 121.909 1287.2 Q121.909 1294.3 123.714 1297.87 Q125.543 1301.41 129.154 1301.41 Q132.788 1301.41 134.594 1297.87 Q136.423 1294.3 136.423 1287.2 Q136.423 1280.07 134.594 1276.53 Q132.788 1272.96 129.154 1272.96 M129.154 1269.26 Q134.964 1269.26 138.02 1273.86 Q141.099 1278.45 141.099 1287.2 Q141.099 1295.92 138.02 1300.53 Q134.964 1305.11 129.154 1305.11 Q123.344 1305.11 120.265 1300.53 Q117.21 1295.92 117.21 1287.2 Q117.21 1278.45 120.265 1273.86 Q123.344 1269.26 129.154 1269.26 Z" fill="#000000" fill-rule="nonzero" fill-opacity="1" /><path clip-path="url(#clip610)" d="M149.316 1298.56 L154.2 1298.56 L154.2 1304.44 L149.316 1304.44 L149.316 1298.56 Z" fill="#000000" fill-rule="nonzero" fill-opacity="1" /><path clip-path="url(#clip610)" d="M168.413 1300.51 L184.733 1300.51 L184.733 1304.44 L162.788 1304.44 L162.788 1300.51 Q165.45 1297.75 170.034 1293.12 Q174.64 1288.47 175.821 1287.13 Q178.066 1284.6 178.946 1282.87 Q179.848 1281.11 179.848 1279.42 Q179.848 1276.66 177.904 1274.93 Q175.983 1273.19 172.881 1273.19 Q170.682 1273.19 168.228 1273.96 Q165.798 1274.72 163.02 1276.27 L163.02 1271.55 Q165.844 1270.41 168.297 1269.84 Q170.751 1269.26 172.788 1269.26 Q178.159 1269.26 181.353 1271.94 Q184.547 1274.63 184.547 1279.12 Q184.547 1281.25 183.737 1283.17 Q182.95 1285.07 180.844 1287.66 Q180.265 1288.33 177.163 1291.55 Q174.061 1294.74 168.413 1300.51 Z" fill="#000000" fill-rule="nonzero" fill-opacity="1" /><path clip-path="url(#clip610)" d="M194.594 1269.88 L212.95 1269.88 L212.95 1273.82 L198.876 1273.82 L198.876 1282.29 Q199.895 1281.94 200.913 1281.78 Q201.932 1281.6 202.95 1281.6 Q208.737 1281.6 212.117 1284.77 Q215.496 1287.94 215.496 1293.35 Q215.496 1298.93 212.024 1302.04 Q208.552 1305.11 202.233 1305.11 Q200.057 1305.11 197.788 1304.74 Q195.543 1304.37 193.135 1303.63 L193.135 1298.93 Q195.219 1300.07 197.441 1300.62 Q199.663 1301.18 202.14 1301.18 Q206.145 1301.18 208.482 1299.07 Q210.82 1296.97 210.82 1293.35 Q210.82 1289.74 208.482 1287.64 Q206.145 1285.53 202.14 1285.53 Q200.265 1285.53 198.39 1285.95 Q196.538 1286.36 194.594 1287.24 L194.594 1269.88 Z" fill="#000000" fill-rule="nonzero" fill-opacity="1" /><path clip-path="url(#clip610)" d="M128.159 871.966 Q124.548 871.966 122.719 875.531 Q120.913 879.073 120.913 886.202 Q120.913 893.309 122.719 896.874 Q124.548 900.415 128.159 900.415 Q131.793 900.415 133.599 896.874 Q135.427 893.309 135.427 886.202 Q135.427 879.073 133.599 875.531 Q131.793 871.966 128.159 871.966 M128.159 868.263 Q133.969 868.263 137.025 872.869 Q140.103 877.453 140.103 886.202 Q140.103 894.929 137.025 899.536 Q133.969 904.119 128.159 904.119 Q122.349 904.119 119.27 899.536 Q116.214 894.929 116.214 886.202 Q116.214 877.453 119.27 872.869 Q122.349 868.263 128.159 868.263 Z" fill="#000000" fill-rule="nonzero" fill-opacity="1" /><path clip-path="url(#clip610)" d="M148.321 897.568 L153.205 897.568 L153.205 903.448 L148.321 903.448 L148.321 897.568 Z" fill="#000000" fill-rule="nonzero" fill-opacity="1" /><path clip-path="url(#clip610)" d="M163.436 868.888 L181.793 868.888 L181.793 872.823 L167.719 872.823 L167.719 881.295 Q168.737 880.948 169.756 880.786 Q170.774 880.601 171.793 880.601 Q177.58 880.601 180.959 883.772 Q184.339 886.943 184.339 892.36 Q184.339 897.939 180.867 901.04 Q177.395 904.119 171.075 904.119 Q168.899 904.119 166.631 903.749 Q164.385 903.378 161.978 902.638 L161.978 897.939 Q164.061 899.073 166.284 899.628 Q168.506 900.184 170.983 900.184 Q174.987 900.184 177.325 898.077 Q179.663 895.971 179.663 892.36 Q179.663 888.749 177.325 886.642 Q174.987 884.536 170.983 884.536 Q169.108 884.536 167.233 884.953 Q165.381 885.369 163.436 886.249 L163.436 868.888 Z" fill="#000000" fill-rule="nonzero" fill-opacity="1" /><path clip-path="url(#clip610)" d="M203.552 871.966 Q199.941 871.966 198.112 875.531 Q196.307 879.073 196.307 886.202 Q196.307 893.309 198.112 896.874 Q199.941 900.415 203.552 900.415 Q207.186 900.415 208.992 896.874 Q210.82 893.309 210.82 886.202 Q210.82 879.073 208.992 875.531 Q207.186 871.966 203.552 871.966 M203.552 868.263 Q209.362 868.263 212.418 872.869 Q215.496 877.453 215.496 886.202 Q215.496 894.929 212.418 899.536 Q209.362 904.119 203.552 904.119 Q197.742 904.119 194.663 899.536 Q191.608 894.929 191.608 886.202 Q191.608 877.453 194.663 872.869 Q197.742 868.263 203.552 868.263 Z" fill="#000000" fill-rule="nonzero" fill-opacity="1" /><path clip-path="url(#clip610)" d="M129.154 470.972 Q125.543 470.972 123.714 474.536 Q121.909 478.078 121.909 485.208 Q121.909 492.314 123.714 495.879 Q125.543 499.421 129.154 499.421 Q132.788 499.421 134.594 495.879 Q136.423 492.314 136.423 485.208 Q136.423 478.078 134.594 474.536 Q132.788 470.972 129.154 470.972 M129.154 467.268 Q134.964 467.268 138.02 471.874 Q141.099 476.458 141.099 485.208 Q141.099 493.935 138.02 498.541 Q134.964 503.124 129.154 503.124 Q123.344 503.124 120.265 498.541 Q117.21 493.935 117.21 485.208 Q117.21 476.458 120.265 471.874 Q123.344 467.268 129.154 467.268 Z" fill="#000000" fill-rule="nonzero" fill-opacity="1" /><path clip-path="url(#clip610)" d="M149.316 496.573 L154.2 496.573 L154.2 502.453 L149.316 502.453 L149.316 496.573 Z" fill="#000000" fill-rule="nonzero" fill-opacity="1" /><path clip-path="url(#clip610)" d="M163.205 467.893 L185.427 467.893 L185.427 469.884 L172.881 502.453 L167.997 502.453 L179.802 471.828 L163.205 471.828 L163.205 467.893 Z" fill="#000000" fill-rule="nonzero" fill-opacity="1" /><path clip-path="url(#clip610)" d="M194.594 467.893 L212.95 467.893 L212.95 471.828 L198.876 471.828 L198.876 480.3 Q199.895 479.953 200.913 479.791 Q201.932 479.606 202.95 479.606 Q208.737 479.606 212.117 482.777 Q215.496 485.948 215.496 491.365 Q215.496 496.944 212.024 500.046 Q208.552 503.124 202.233 503.124 Q200.057 503.124 197.788 502.754 Q195.543 502.384 193.135 501.643 L193.135 496.944 Q195.219 498.078 197.441 498.634 Q199.663 499.189 202.14 499.189 Q206.145 499.189 208.482 497.083 Q210.82 494.976 210.82 491.365 Q210.82 487.754 208.482 485.648 Q206.145 483.541 202.14 483.541 Q200.265 483.541 198.39 483.958 Q196.538 484.374 194.594 485.254 L194.594 467.893 Z" fill="#000000" fill-rule="nonzero" fill-opacity="1" /><path clip-path="url(#clip610)" d="M118.969 97.5231 L126.608 97.5231 L126.608 71.1575 L118.298 72.8241 L118.298 68.5649 L126.562 66.8983 L131.238 66.8983 L131.238 97.5231 L138.876 97.5231 L138.876 101.458 L118.969 101.458 L118.969 97.5231 Z" fill="#000000" fill-rule="nonzero" fill-opacity="1" /><path clip-path="url(#clip610)" d="M148.321 95.5787 L153.205 95.5787 L153.205 101.458 L148.321 101.458 L148.321 95.5787 Z" fill="#000000" fill-rule="nonzero" fill-opacity="1" /><path clip-path="url(#clip610)" d="M173.39 69.9769 Q169.779 69.9769 167.95 73.5417 Q166.145 77.0834 166.145 84.213 Q166.145 91.3194 167.95 94.8842 Q169.779 98.4259 173.39 98.4259 Q177.024 98.4259 178.83 94.8842 Q180.659 91.3194 180.659 84.213 Q180.659 77.0834 178.83 73.5417 Q177.024 69.9769 173.39 69.9769 M173.39 66.2733 Q179.2 66.2733 182.256 70.8797 Q185.334 75.463 185.334 84.213 Q185.334 92.9398 182.256 97.5462 Q179.2 102.13 173.39 102.13 Q167.58 102.13 164.501 97.5462 Q161.446 92.9398 161.446 84.213 Q161.446 75.463 164.501 70.8797 Q167.58 66.2733 173.39 66.2733 Z" fill="#000000" fill-rule="nonzero" fill-opacity="1" /><path clip-path="url(#clip610)" d="M203.552 69.9769 Q199.941 69.9769 198.112 73.5417 Q196.307 77.0834 196.307 84.213 Q196.307 91.3194 198.112 94.8842 Q199.941 98.4259 203.552 98.4259 Q207.186 98.4259 208.992 94.8842 Q210.82 91.3194 210.82 84.213 Q210.82 77.0834 208.992 73.5417 Q207.186 69.9769 203.552 69.9769 M203.552 66.2733 Q209.362 66.2733 212.418 70.8797 Q215.496 75.463 215.496 84.213 Q215.496 92.9398 212.418 97.5462 Q209.362 102.13 203.552 102.13 Q197.742 102.13 194.663 97.5462 Q191.608 92.9398 191.608 84.213 Q191.608 75.463 194.663 70.8797 Q197.742 66.2733 203.552 66.2733 Z" fill="#000000" fill-rule="nonzero" fill-opacity="1" /><path clip-path="url(#clip610)" d="M14.1184 1034.42 L14.1184 1007.11 L19.5293 1007.11 L19.5293 1027.99 L33.5338 1027.99 L33.5338 1009.15 L38.9447 1009.15 L38.9447 1027.99 L61.6384 1027.99 L61.6384 1034.42 L14.1184 1034.42 Z" fill="#000000" fill-rule="nonzero" fill-opacity="1" /><path clip-path="url(#clip610)" d="M25.9905 1001.92 L25.9905 996.065 L61.6384 996.065 L61.6384 1001.92 L25.9905 1001.92 M12.1132 1001.92 L12.1132 996.065 L19.5293 996.065 L19.5293 1001.92 L12.1132 1001.92 Z" fill="#000000" fill-rule="nonzero" fill-opacity="1" /><path clip-path="url(#clip610)" d="M40.1224 954.178 L61.6384 954.178 L61.6384 960.035 L40.3133 960.035 Q35.2526 960.035 32.7381 962.008 Q30.2237 963.982 30.2237 967.928 Q30.2237 972.671 33.2474 975.408 Q36.2711 978.145 41.491 978.145 L61.6384 978.145 L61.6384 984.034 L25.9905 984.034 L25.9905 978.145 L31.5287 978.145 Q28.314 976.045 26.7225 973.212 Q25.1311 970.347 25.1311 966.623 Q25.1311 960.481 28.9505 957.329 Q32.7381 954.178 40.1224 954.178 Z" fill="#000000" fill-rule="nonzero" fill-opacity="1" /><path clip-path="url(#clip610)" d="M43.719 926.297 Q43.719 933.394 45.3422 936.132 Q46.9655 938.869 50.8804 938.869 Q53.9996 938.869 55.8457 936.832 Q57.6599 934.763 57.6599 931.23 Q57.6599 926.36 54.2224 923.432 Q50.7531 920.472 45.0239 920.472 L43.719 920.472 L43.719 926.297 M41.3 914.616 L61.6384 914.616 L61.6384 920.472 L56.2276 920.472 Q59.4741 922.477 61.0337 925.469 Q62.5615 928.461 62.5615 932.79 Q62.5615 938.264 59.5059 941.511 Q56.4186 944.725 51.2623 944.725 Q45.2467 944.725 42.1912 940.715 Q39.1357 936.673 39.1357 928.684 L39.1357 920.472 L38.5628 920.472 Q34.5205 920.472 32.3244 923.146 Q30.0964 925.787 30.0964 930.594 Q30.0964 933.649 30.8284 936.545 Q31.5605 939.442 33.0246 942.115 L27.6137 942.115 Q26.3724 938.901 25.7677 935.877 Q25.1311 932.853 25.1311 929.989 Q25.1311 922.254 29.1415 918.435 Q33.1519 914.616 41.3 914.616 Z" fill="#000000" fill-rule="nonzero" fill-opacity="1" /><path clip-path="url(#clip610)" d="M12.1132 902.553 L12.1132 896.696 L61.6384 896.696 L61.6384 902.553 L12.1132 902.553 Z" fill="#000000" fill-rule="nonzero" fill-opacity="1" /><path clip-path="url(#clip610)" d="M27.0408 840.996 L32.579 840.996 Q31.3059 843.479 30.6693 846.152 Q30.0327 848.826 30.0327 851.691 Q30.0327 856.051 31.3695 858.247 Q32.7063 860.412 35.3799 860.412 Q37.4169 860.412 38.5946 858.852 Q39.7404 857.292 40.7908 852.582 L41.2364 850.577 Q42.5732 844.338 45.0239 841.728 Q47.4429 839.086 51.8034 839.086 Q56.7687 839.086 59.6651 843.033 Q62.5615 846.948 62.5615 853.823 Q62.5615 856.688 61.9886 859.807 Q61.4475 862.894 60.3335 866.332 L54.2861 866.332 Q55.973 863.085 56.8323 859.934 Q57.6599 856.783 57.6599 853.696 Q57.6599 849.558 56.2594 847.33 Q54.8271 845.102 52.249 845.102 Q49.8619 845.102 48.5887 846.725 Q47.3156 848.317 46.1379 853.759 L45.6605 855.796 Q44.5147 861.239 42.1594 863.658 Q39.7722 866.077 35.6345 866.077 Q30.6056 866.077 27.8684 862.512 Q25.1311 858.947 25.1311 852.391 Q25.1311 849.144 25.6085 846.28 Q26.086 843.415 27.0408 840.996 Z" fill="#000000" fill-rule="nonzero" fill-opacity="1" /><path clip-path="url(#clip610)" d="M25.9905 829.761 L25.9905 823.904 L61.6384 823.904 L61.6384 829.761 L25.9905 829.761 M12.1132 829.761 L12.1132 823.904 L19.5293 823.904 L19.5293 829.761 L12.1132 829.761 Z" fill="#000000" fill-rule="nonzero" fill-opacity="1" /><path clip-path="url(#clip610)" d="M25.9905 814.197 L25.9905 786.378 L31.3377 786.378 L56.9596 808.404 L56.9596 786.378 L61.6384 786.378 L61.6384 814.992 L56.2912 814.992 L30.6693 792.967 L30.6693 814.197 L25.9905 814.197 Z" fill="#000000" fill-rule="nonzero" fill-opacity="1" /><path clip-path="url(#clip610)" d="M42.3504 746.943 L45.2149 746.943 L45.2149 773.87 Q51.2623 773.488 54.4452 770.241 Q57.5962 766.963 57.5962 761.138 Q57.5962 757.765 56.7687 754.614 Q55.9411 751.431 54.2861 748.312 L59.8242 748.312 Q61.161 751.463 61.8612 754.773 Q62.5615 758.083 62.5615 761.489 Q62.5615 770.019 57.5962 775.016 Q52.631 779.981 44.1646 779.981 Q35.4117 779.981 30.2873 775.27 Q25.1311 770.528 25.1311 762.507 Q25.1311 755.314 29.7781 751.144 Q34.3932 746.943 42.3504 746.943 M40.6316 752.799 Q35.8255 752.863 32.9609 755.505 Q30.0964 758.115 30.0964 762.443 Q30.0964 767.345 32.8654 770.305 Q35.6345 773.233 40.6634 773.679 L40.6316 752.799 Z" fill="#000000" fill-rule="nonzero" fill-opacity="1" /><polyline clip-path="url(#clip612)" style="stroke:#009af9; stroke-linecap:round; stroke-linejoin:round; stroke-width:4; stroke-opacity:1; fill:none" points="323.315,1686.38 369.232,1686.15 415.149,1685.87 461.066,1685.49 506.983,1684.95 552.901,1684.16 598.818,1682.84 644.735,1680.23 690.652,1672.85 736.569,1617.47 782.487,1392.26 828.404,1178.84 874.321,1006.02 920.238,865.997 966.155,751.525 1012.07,657.056 1057.99,578.44 1103.91,512.502 1149.82,456.807 1195.74,409.511 1241.66,369.104 1287.58,334.41 1333.49,304.493 1379.41,278.599 1425.33,256.109 1471.24,236.491 1517.16,219.369 1563.08,204.343 1609,191.136 1654.91,179.509 1700.83,169.247 1746.75,160.174 1792.67,152.136 1838.58,145.003 1884.5,138.665 1930.42,133.026 1976.33,128.002 2022.25,123.52 2068.17,119.518 2114.09,115.941 2160,112.741 2205.92,109.875 2251.84,107.307 2297.75,105.004 2343.67,102.937 2389.59,101.082 2435.51,99.4145 2481.42,97.9157 2527.34,96.5678 2573.26,95.355 "/>
<polyline clip-path="url(#clip612)" style="stroke:#ff0000; stroke-linecap:round; stroke-linejoin:round; stroke-width:4; stroke-opacity:1; fill:none" points="736.569,674.249 782.487,618.096 828.404,567.287 874.321,521.314 920.238,479.715 966.155,442.074 1012.07,408.016 1057.99,377.199 1103.91,349.314 1149.82,324.083 1195.74,301.253 1241.66,280.596 1287.58,261.904 1333.49,244.991 1379.41,229.688 1425.33,215.841 1471.24,203.312 1517.16,191.974 1563.08,181.716 1609,172.434 1654.91,164.036 1700.83,156.436 1746.75,149.56 1792.67,143.338 1838.58,137.708 1884.5,132.614 1930.42,128.005 1976.33,123.834 2022.25,120.061 2068.17,116.646 2114.09,113.556 2160,110.76 2205.92,108.231 2251.84,105.942 2297.75,103.871 2343.67,101.997 2389.59,100.301 2435.51,98.7669 2481.42,97.3786 2527.34,96.1224 2573.26,94.9858 "/>
</svg>
