<?xml version="1.0" encoding="utf-8"?>
<svg xmlns="http://www.w3.org/2000/svg" xmlns:xlink="http://www.w3.org/1999/xlink" width="672" height="480" viewBox="0 0 2688 1920">
<defs>
  <clipPath id="clip540">
    <rect x="0" y="0" width="2688" height="1920"/>
  </clipPath>
</defs>
<path clip-path="url(#clip540)" d="M0 1920 L2688 1920 L2688 0 L0 0  Z" fill="#ffffff" fill-rule="evenodd" fill-opacity="1"/>
<defs>
  <clipPath id="clip541">
    <rect x="537" y="0" width="1883" height="1883"/>
  </clipPath>
</defs>
<path clip-path="url(#clip540)" d="M255.816 1734.12 L2640.76 1734.12 L2640.76 47.2441 L255.816 47.2441  Z" fill="#ffffff" fill-rule="evenodd" fill-opacity="1"/>
<defs>
  <clipPath id="clip542">
    <rect x="255" y="47" width="2386" height="1688"/>
  </clipPath>
</defs>
<polyline clip-path="url(#clip542)" style="stroke:#000000; stroke-linecap:round; stroke-linejoin:round; stroke-width:2; stroke-opacity:0.1; fill:none" points="323.315,1734.12 323.315,47.2441 "/>
<polyline clip-path="url(#clip542)" style="stroke:#000000; stroke-linecap:round; stroke-linejoin:round; stroke-width:2; stroke-opacity:0.1; fill:none" points="773.303,1734.12 773.303,47.2441 "/>
<polyline clip-path="url(#clip542)" style="stroke:#000000; stroke-linecap:round; stroke-linejoin:round; stroke-width:2; stroke-opacity:0.1; fill:none" points="1223.29,1734.12 1223.29,47.2441 "/>
<polyline clip-path="url(#clip542)" style="stroke:#000000; stroke-linecap:round; stroke-linejoin:round; stroke-width:2; stroke-opacity:0.1; fill:none" points="1673.28,1734.12 1673.28,47.2441 "/>
<polyline clip-path="url(#clip542)" style="stroke:#000000; stroke-linecap:round; stroke-linejoin:round; stroke-width:2; stroke-opacity:0.1; fill:none" points="2123.27,1734.12 2123.27,47.2441 "/>
<polyline clip-path="url(#clip542)" style="stroke:#000000; stroke-linecap:round; stroke-linejoin:round; stroke-width:2; stroke-opacity:0.1; fill:none" points="2573.26,1734.12 2573.26,47.2441 "/>
<polyline clip-path="url(#clip540)" style="stroke:#000000; stroke-linecap:round; stroke-linejoin:round; stroke-width:4; stroke-opacity:1; fill:none" points="255.816,1734.12 2640.76,1734.12 "/>
<polyline clip-path="url(#clip540)" style="stroke:#000000; stroke-linecap:round; stroke-linejoin:round; stroke-width:4; stroke-opacity:1; fill:none" points="323.315,1734.12 323.315,1715.22 "/>
<polyline clip-path="url(#clip540)" style="stroke:#000000; stroke-linecap:round; stroke-linejoin:round; stroke-width:4; stroke-opacity:1; fill:none" points="773.303,1734.12 773.303,1715.22 "/>
<polyline clip-path="url(#clip540)" style="stroke:#000000; stroke-linecap:round; stroke-linejoin:round; stroke-width:4; stroke-opacity:1; fill:none" points="1223.29,1734.12 1223.29,1715.22 "/>
<polyline clip-path="url(#clip540)" style="stroke:#000000; stroke-linecap:round; stroke-linejoin:round; stroke-width:4; stroke-opacity:1; fill:none" points="1673.28,1734.12 1673.28,1715.22 "/>
<polyline clip-path="url(#clip540)" style="stroke:#000000; stroke-linecap:round; stroke-linejoin:round; stroke-width:4; stroke-opacity:1; fill:none" points="2123.27,1734.12 2123.27,1715.22 "/>
<polyline clip-path="url(#clip540)" style="stroke:#000000; stroke-linecap:round; stroke-linejoin:round; stroke-width:4; stroke-opacity:1; fill:none" points="2573.26,1734.12 2573.26,1715.22 "/>
<path clip-path="url(#clip540)" d="M300.699 1767.34 Q297.088 1767.34 295.259 1770.9 Q293.454 1774.45 293.454 1781.58 Q293.454 1788.68 295.259 1792.25 Q297.088 1795.79 300.699 1795.79 Q304.333 1795.79 306.139 1792.25 Q307.967 1788.68 307.967 1781.58 Q307.967 1774.45 306.139 1770.9 Q304.333 1767.34 300.699 1767.34 M300.699 1763.64 Q306.509 1763.64 309.565 1768.24 Q312.643 1772.83 312.643 1781.58 Q312.643 1790.3 309.565 1794.91 Q306.509 1799.49 300.699 1799.49 Q294.889 1799.49 291.81 1794.91 Q288.755 1790.3 288.755 1781.58 Q288.755 1772.83 291.81 1768.24 Q294.889 1763.64 300.699 1763.64 Z" fill="#000000" fill-rule="nonzero" fill-opacity="1" /><path clip-path="url(#clip540)" d="M320.861 1792.94 L325.745 1792.94 L325.745 1798.82 L320.861 1798.82 L320.861 1792.94 Z" fill="#000000" fill-rule="nonzero" fill-opacity="1" /><path clip-path="url(#clip540)" d="M345.93 1767.34 Q342.319 1767.34 340.49 1770.9 Q338.685 1774.45 338.685 1781.58 Q338.685 1788.68 340.49 1792.25 Q342.319 1795.79 345.93 1795.79 Q349.564 1795.79 351.37 1792.25 Q353.199 1788.68 353.199 1781.58 Q353.199 1774.45 351.37 1770.9 Q349.564 1767.34 345.93 1767.34 M345.93 1763.64 Q351.74 1763.64 354.796 1768.24 Q357.875 1772.83 357.875 1781.58 Q357.875 1790.3 354.796 1794.91 Q351.74 1799.49 345.93 1799.49 Q340.12 1799.49 337.041 1794.91 Q333.986 1790.3 333.986 1781.58 Q333.986 1772.83 337.041 1768.24 Q340.12 1763.64 345.93 1763.64 Z" fill="#000000" fill-rule="nonzero" fill-opacity="1" /><path clip-path="url(#clip540)" d="M751.301 1767.34 Q747.69 1767.34 745.861 1770.9 Q744.056 1774.45 744.056 1781.58 Q744.056 1788.68 745.861 1792.25 Q747.69 1795.79 751.301 1795.79 Q754.935 1795.79 756.741 1792.25 Q758.569 1788.68 758.569 1781.58 Q758.569 1774.45 756.741 1770.9 Q754.935 1767.34 751.301 1767.34 M751.301 1763.64 Q757.111 1763.64 760.167 1768.24 Q763.245 1772.83 763.245 1781.58 Q763.245 1790.3 760.167 1794.91 Q757.111 1799.49 751.301 1799.49 Q745.491 1799.49 742.412 1794.91 Q739.357 1790.3 739.357 1781.58 Q739.357 1772.83 742.412 1768.24 Q745.491 1763.64 751.301 1763.64 Z" fill="#000000" fill-rule="nonzero" fill-opacity="1" /><path clip-path="url(#clip540)" d="M771.463 1792.94 L776.347 1792.94 L776.347 1798.82 L771.463 1798.82 L771.463 1792.94 Z" fill="#000000" fill-rule="nonzero" fill-opacity="1" /><path clip-path="url(#clip540)" d="M787.342 1794.89 L794.981 1794.89 L794.981 1768.52 L786.671 1770.19 L786.671 1765.93 L794.935 1764.26 L799.611 1764.26 L799.611 1794.89 L807.25 1794.89 L807.25 1798.82 L787.342 1798.82 L787.342 1794.89 Z" fill="#000000" fill-rule="nonzero" fill-opacity="1" /><path clip-path="url(#clip540)" d="M1201.47 1767.34 Q1197.86 1767.34 1196.04 1770.9 Q1194.23 1774.45 1194.23 1781.58 Q1194.23 1788.68 1196.04 1792.25 Q1197.86 1795.79 1201.47 1795.79 Q1205.11 1795.79 1206.91 1792.25 Q1208.74 1788.68 1208.74 1781.58 Q1208.74 1774.45 1206.91 1770.9 Q1205.11 1767.34 1201.47 1767.34 M1201.47 1763.64 Q1207.28 1763.64 1210.34 1768.24 Q1213.42 1772.83 1213.42 1781.58 Q1213.42 1790.3 1210.34 1794.91 Q1207.28 1799.49 1201.47 1799.49 Q1195.66 1799.49 1192.59 1794.91 Q1189.53 1790.3 1189.53 1781.58 Q1189.53 1772.83 1192.59 1768.24 Q1195.66 1763.64 1201.47 1763.64 Z" fill="#000000" fill-rule="nonzero" fill-opacity="1" /><path clip-path="url(#clip540)" d="M1221.64 1792.94 L1226.52 1792.94 L1226.52 1798.82 L1221.64 1798.82 L1221.64 1792.94 Z" fill="#000000" fill-rule="nonzero" fill-opacity="1" /><path clip-path="url(#clip540)" d="M1240.73 1794.89 L1257.05 1794.89 L1257.05 1798.82 L1235.11 1798.82 L1235.11 1794.89 Q1237.77 1792.13 1242.35 1787.5 Q1246.96 1782.85 1248.14 1781.51 Q1250.39 1778.98 1251.27 1777.25 Q1252.17 1775.49 1252.17 1773.8 Q1252.17 1771.04 1250.22 1769.31 Q1248.3 1767.57 1245.2 1767.57 Q1243 1767.57 1240.55 1768.34 Q1238.12 1769.1 1235.34 1770.65 L1235.34 1765.93 Q1238.16 1764.79 1240.62 1764.21 Q1243.07 1763.64 1245.11 1763.64 Q1250.48 1763.64 1253.67 1766.32 Q1256.87 1769.01 1256.87 1773.5 Q1256.87 1775.63 1256.06 1777.55 Q1255.27 1779.45 1253.16 1782.04 Q1252.59 1782.71 1249.48 1785.93 Q1246.38 1789.12 1240.73 1794.89 Z" fill="#000000" fill-rule="nonzero" fill-opacity="1" /><path clip-path="url(#clip540)" d="M1650.99 1767.34 Q1647.38 1767.34 1645.55 1770.9 Q1643.74 1774.45 1643.74 1781.58 Q1643.74 1788.68 1645.55 1792.25 Q1647.38 1795.79 1650.99 1795.79 Q1654.62 1795.79 1656.43 1792.25 Q1658.26 1788.68 1658.26 1781.58 Q1658.26 1774.45 1656.43 1770.9 Q1654.62 1767.34 1650.99 1767.34 M1650.99 1763.64 Q1656.8 1763.64 1659.85 1768.24 Q1662.93 1772.83 1662.93 1781.58 Q1662.93 1790.3 1659.85 1794.91 Q1656.8 1799.49 1650.99 1799.49 Q1645.18 1799.49 1642.1 1794.91 Q1639.04 1790.3 1639.04 1781.58 Q1639.04 1772.83 1642.1 1768.24 Q1645.18 1763.64 1650.99 1763.64 Z" fill="#000000" fill-rule="nonzero" fill-opacity="1" /><path clip-path="url(#clip540)" d="M1671.15 1792.94 L1676.04 1792.94 L1676.04 1798.82 L1671.15 1798.82 L1671.15 1792.94 Z" fill="#000000" fill-rule="nonzero" fill-opacity="1" /><path clip-path="url(#clip540)" d="M1700.39 1780.19 Q1703.74 1780.9 1705.62 1783.17 Q1707.52 1785.44 1707.52 1788.77 Q1707.52 1793.89 1704 1796.69 Q1700.48 1799.49 1694 1799.49 Q1691.82 1799.49 1689.51 1799.05 Q1687.22 1798.64 1684.76 1797.78 L1684.76 1793.27 Q1686.71 1794.4 1689.02 1794.98 Q1691.34 1795.56 1693.86 1795.56 Q1698.26 1795.56 1700.55 1793.82 Q1702.86 1792.08 1702.86 1788.77 Q1702.86 1785.72 1700.71 1784.01 Q1698.58 1782.27 1694.76 1782.27 L1690.73 1782.27 L1690.73 1778.43 L1694.95 1778.43 Q1698.4 1778.43 1700.22 1777.06 Q1702.05 1775.67 1702.05 1773.08 Q1702.05 1770.42 1700.16 1769.01 Q1698.28 1767.57 1694.76 1767.57 Q1692.84 1767.57 1690.64 1767.99 Q1688.44 1768.4 1685.8 1769.28 L1685.8 1765.12 Q1688.47 1764.38 1690.78 1764.01 Q1693.12 1763.64 1695.18 1763.64 Q1700.5 1763.64 1703.6 1766.07 Q1706.71 1768.47 1706.71 1772.59 Q1706.71 1775.46 1705.06 1777.46 Q1703.42 1779.42 1700.39 1780.19 Z" fill="#000000" fill-rule="nonzero" fill-opacity="1" /><path clip-path="url(#clip540)" d="M2100.41 1767.34 Q2096.8 1767.34 2094.97 1770.9 Q2093.17 1774.45 2093.17 1781.58 Q2093.17 1788.68 2094.97 1792.25 Q2096.8 1795.79 2100.41 1795.79 Q2104.04 1795.79 2105.85 1792.25 Q2107.68 1788.68 2107.68 1781.58 Q2107.68 1774.45 2105.85 1770.9 Q2104.04 1767.34 2100.41 1767.34 M2100.41 1763.64 Q2106.22 1763.64 2109.28 1768.24 Q2112.35 1772.83 2112.35 1781.58 Q2112.35 1790.3 2109.28 1794.91 Q2106.22 1799.49 2100.41 1799.49 Q2094.6 1799.49 2091.52 1794.91 Q2088.47 1790.3 2088.47 1781.58 Q2088.47 1772.83 2091.52 1768.24 Q2094.6 1763.64 2100.41 1763.64 Z" fill="#000000" fill-rule="nonzero" fill-opacity="1" /><path clip-path="url(#clip540)" d="M2120.57 1792.94 L2125.46 1792.94 L2125.46 1798.82 L2120.57 1798.82 L2120.57 1792.94 Z" fill="#000000" fill-rule="nonzero" fill-opacity="1" /><path clip-path="url(#clip540)" d="M2148.49 1768.34 L2136.68 1786.78 L2148.49 1786.78 L2148.49 1768.34 M2147.26 1764.26 L2153.14 1764.26 L2153.14 1786.78 L2158.07 1786.78 L2158.07 1790.67 L2153.14 1790.67 L2153.14 1798.82 L2148.49 1798.82 L2148.49 1790.67 L2132.89 1790.67 L2132.89 1786.16 L2147.26 1764.26 Z" fill="#000000" fill-rule="nonzero" fill-opacity="1" /><path clip-path="url(#clip540)" d="M2551.14 1767.34 Q2547.53 1767.34 2545.7 1770.9 Q2543.89 1774.45 2543.89 1781.58 Q2543.89 1788.68 2545.7 1792.25 Q2547.53 1795.79 2551.14 1795.79 Q2554.77 1795.79 2556.58 1792.25 Q2558.41 1788.68 2558.41 1781.58 Q2558.41 1774.45 2556.58 1770.9 Q2554.77 1767.34 2551.14 1767.34 M2551.14 1763.64 Q2556.95 1763.64 2560.01 1768.24 Q2563.08 1772.83 2563.08 1781.58 Q2563.08 1790.3 2560.01 1794.91 Q2556.95 1799.49 2551.14 1799.49 Q2545.33 1799.49 2542.25 1794.91 Q2539.2 1790.3 2539.2 1781.58 Q2539.2 1772.83 2542.25 1768.24 Q2545.33 1763.64 2551.14 1763.64 Z" fill="#000000" fill-rule="nonzero" fill-opacity="1" /><path clip-path="url(#clip540)" d="M2571.3 1792.94 L2576.19 1792.94 L2576.19 1798.82 L2571.3 1798.82 L2571.3 1792.94 Z" fill="#000000" fill-rule="nonzero" fill-opacity="1" /><path clip-path="url(#clip540)" d="M2586.42 1764.26 L2604.77 1764.26 L2604.77 1768.2 L2590.7 1768.2 L2590.7 1776.67 Q2591.72 1776.32 2592.74 1776.16 Q2593.76 1775.97 2594.77 1775.97 Q2600.56 1775.97 2603.94 1779.15 Q2607.32 1782.32 2607.32 1787.73 Q2607.32 1793.31 2603.85 1796.41 Q2600.38 1799.49 2594.06 1799.49 Q2591.88 1799.49 2589.61 1799.12 Q2587.37 1798.75 2584.96 1798.01 L2584.96 1793.31 Q2587.04 1794.45 2589.26 1795 Q2591.49 1795.56 2593.96 1795.56 Q2597.97 1795.56 2600.31 1793.45 Q2602.64 1791.34 2602.64 1787.73 Q2602.64 1784.12 2600.31 1782.02 Q2597.97 1779.91 2593.96 1779.91 Q2592.09 1779.91 2590.21 1780.33 Q2588.36 1780.74 2586.42 1781.62 L2586.42 1764.26 Z" fill="#000000" fill-rule="nonzero" fill-opacity="1" /><path clip-path="url(#clip540)" d="M1370.16 1835.78 L1410.36 1835.78 L1410.36 1841.19 L1393.49 1841.19 L1393.49 1883.3 L1387.03 1883.3 L1387.03 1841.19 L1370.16 1841.19 L1370.16 1835.78 Z" fill="#000000" fill-rule="nonzero" fill-opacity="1" /><path clip-path="url(#clip540)" d="M1414.31 1847.65 L1420.17 1847.65 L1420.17 1883.3 L1414.31 1883.3 L1414.31 1847.65 M1414.31 1833.78 L1420.17 1833.78 L1420.17 1841.19 L1414.31 1841.19 L1414.31 1833.78 Z" fill="#000000" fill-rule="nonzero" fill-opacity="1" /><path clip-path="url(#clip540)" d="M1460.17 1854.5 Q1462.37 1850.55 1465.43 1848.67 Q1468.48 1846.79 1472.62 1846.79 Q1478.19 1846.79 1481.21 1850.71 Q1484.24 1854.59 1484.24 1861.78 L1484.24 1883.3 L1478.35 1883.3 L1478.35 1861.98 Q1478.35 1856.85 1476.53 1854.37 Q1474.72 1851.89 1471 1851.89 Q1466.44 1851.89 1463.8 1854.91 Q1461.16 1857.93 1461.16 1863.15 L1461.16 1883.3 L1455.27 1883.3 L1455.27 1861.98 Q1455.27 1856.82 1453.46 1854.37 Q1451.64 1851.89 1447.86 1851.89 Q1443.37 1851.89 1440.73 1854.94 Q1438.09 1857.97 1438.09 1863.15 L1438.09 1883.3 L1432.2 1883.3 L1432.2 1847.65 L1438.09 1847.65 L1438.09 1853.19 Q1440.09 1849.91 1442.89 1848.35 Q1445.69 1846.79 1449.54 1846.79 Q1453.43 1846.79 1456.13 1848.77 Q1458.87 1850.74 1460.17 1854.5 Z" fill="#000000" fill-rule="nonzero" fill-opacity="1" /><path clip-path="url(#clip540)" d="M1526.41 1864.01 L1526.41 1866.88 L1499.48 1866.88 Q1499.86 1872.92 1503.11 1876.11 Q1506.39 1879.26 1512.21 1879.26 Q1515.59 1879.26 1518.74 1878.43 Q1521.92 1877.6 1525.04 1875.95 L1525.04 1881.49 Q1521.89 1882.82 1518.58 1883.52 Q1515.27 1884.22 1511.86 1884.22 Q1503.33 1884.22 1498.34 1879.26 Q1493.37 1874.29 1493.37 1865.83 Q1493.37 1857.07 1498.08 1851.95 Q1502.82 1846.79 1510.85 1846.79 Q1518.04 1846.79 1522.21 1851.44 Q1526.41 1856.06 1526.41 1864.01 M1520.55 1862.29 Q1520.49 1857.49 1517.85 1854.62 Q1515.24 1851.76 1510.91 1851.76 Q1506.01 1851.76 1503.05 1854.53 Q1500.12 1857.3 1499.67 1862.33 L1520.55 1862.29 Z" fill="#000000" fill-rule="nonzero" fill-opacity="1" /><polyline clip-path="url(#clip542)" style="stroke:#000000; stroke-linecap:round; stroke-linejoin:round; stroke-width:2; stroke-opacity:0.1; fill:none" points="255.816,1686.38 2640.76,1686.38 "/>
<polyline clip-path="url(#clip542)" style="stroke:#000000; stroke-linecap:round; stroke-linejoin:round; stroke-width:2; stroke-opacity:0.1; fill:none" points="255.816,1288.13 2640.76,1288.13 "/>
<polyline clip-path="url(#clip542)" style="stroke:#000000; stroke-linecap:round; stroke-linejoin:round; stroke-width:2; stroke-opacity:0.1; fill:none" points="255.816,889.884 2640.76,889.884 "/>
<polyline clip-path="url(#clip542)" style="stroke:#000000; stroke-linecap:round; stroke-linejoin:round; stroke-width:2; stroke-opacity:0.1; fill:none" points="255.816,491.638 2640.76,491.638 "/>
<polyline clip-path="url(#clip542)" style="stroke:#000000; stroke-linecap:round; stroke-linejoin:round; stroke-width:2; stroke-opacity:0.1; fill:none" points="255.816,93.3928 2640.76,93.3928 "/>
<polyline clip-path="url(#clip540)" style="stroke:#000000; stroke-linecap:round; stroke-linejoin:round; stroke-width:4; stroke-opacity:1; fill:none" points="255.816,1734.12 255.816,47.2441 "/>
<polyline clip-path="url(#clip540)" style="stroke:#000000; stroke-linecap:round; stroke-linejoin:round; stroke-width:4; stroke-opacity:1; fill:none" points="255.816,1686.38 274.714,1686.38 "/>
<polyline clip-path="url(#clip540)" style="stroke:#000000; stroke-linecap:round; stroke-linejoin:round; stroke-width:4; stroke-opacity:1; fill:none" points="255.816,1288.13 274.714,1288.13 "/>
<polyline clip-path="url(#clip540)" style="stroke:#000000; stroke-linecap:round; stroke-linejoin:round; stroke-width:4; stroke-opacity:1; fill:none" points="255.816,889.884 274.714,889.884 "/>
<polyline clip-path="url(#clip540)" style="stroke:#000000; stroke-linecap:round; stroke-linejoin:round; stroke-width:4; stroke-opacity:1; fill:none" points="255.816,491.638 274.714,491.638 "/>
<polyline clip-path="url(#clip540)" style="stroke:#000000; stroke-linecap:round; stroke-linejoin:round; stroke-width:4; stroke-opacity:1; fill:none" points="255.816,93.3928 274.714,93.3928 "/>
<path clip-path="url(#clip540)" d="M128.159 1672.17 Q124.548 1672.17 122.719 1675.74 Q120.913 1679.28 120.913 1686.41 Q120.913 1693.52 122.719 1697.08 Q124.548 1700.62 128.159 1700.62 Q131.793 1700.62 133.599 1697.08 Q135.427 1693.52 135.427 1686.41 Q135.427 1679.28 133.599 1675.74 Q131.793 1672.17 128.159 1672.17 M128.159 1668.47 Q133.969 1668.47 137.025 1673.08 Q140.103 1677.66 140.103 1686.41 Q140.103 1695.14 137.025 1699.74 Q133.969 1704.33 128.159 1704.33 Q122.349 1704.33 119.27 1699.74 Q116.214 1695.14 116.214 1686.41 Q116.214 1677.66 119.27 1673.08 Q122.349 1668.47 128.159 1668.47 Z" fill="#000000" fill-rule="nonzero" fill-opacity="1" /><path clip-path="url(#clip540)" d="M148.321 1697.78 L153.205 1697.78 L153.205 1703.66 L148.321 1703.66 L148.321 1697.78 Z" fill="#000000" fill-rule="nonzero" fill-opacity="1" /><path clip-path="url(#clip540)" d="M173.39 1672.17 Q169.779 1672.17 167.95 1675.74 Q166.145 1679.28 166.145 1686.41 Q166.145 1693.52 167.95 1697.08 Q169.779 1700.62 173.39 1700.62 Q177.024 1700.62 178.83 1697.08 Q180.659 1693.52 180.659 1686.41 Q180.659 1679.28 178.83 1675.74 Q177.024 1672.17 173.39 1672.17 M173.39 1668.47 Q179.2 1668.47 182.256 1673.08 Q185.334 1677.66 185.334 1686.41 Q185.334 1695.14 182.256 1699.74 Q179.2 1704.33 173.39 1704.33 Q167.58 1704.33 164.501 1699.74 Q161.446 1695.14 161.446 1686.41 Q161.446 1677.66 164.501 1673.08 Q167.58 1668.47 173.39 1668.47 Z" fill="#000000" fill-rule="nonzero" fill-opacity="1" /><path clip-path="url(#clip540)" d="M203.552 1672.17 Q199.941 1672.17 198.112 1675.74 Q196.307 1679.28 196.307 1686.41 Q196.307 1693.52 198.112 1697.08 Q199.941 1700.62 203.552 1700.62 Q207.186 1700.62 208.992 1697.08 Q210.82 1693.52 210.82 1686.41 Q210.82 1679.28 208.992 1675.74 Q207.186 1672.17 203.552 1672.17 M203.552 1668.47 Q209.362 1668.47 212.418 1673.08 Q215.496 1677.66 215.496 1686.41 Q215.496 1695.14 212.418 1699.74 Q209.362 1704.33 203.552 1704.33 Q197.742 1704.33 194.663 1699.74 Q191.608 1695.14 191.608 1686.41 Q191.608 1677.66 194.663 1673.08 Q197.742 1668.47 203.552 1668.47 Z" fill="#000000" fill-rule="nonzero" fill-opacity="1" /><path clip-path="url(#clip540)" d="M129.154 1273.93 Q125.543 1273.93 123.714 1277.49 Q121.909 1281.03 121.909 1288.16 Q121.909 1295.27 123.714 1298.84 Q125.543 1302.38 129.154 1302.38 Q132.788 1302.38 134.594 1298.84 Q136.423 1295.27 136.423 1288.16 Q136.423 1281.03 134.594 1277.49 Q132.788 1273.93 129.154 1273.93 M129.154 1270.22 Q134.964 1270.22 138.02 1274.83 Q141.099 1279.41 141.099 1288.16 Q141.099 1296.89 138.02 1301.5 Q134.964 1306.08 129.154 1306.08 Q123.344 1306.08 120.265 1301.5 Q117.21 1296.89 117.21 1288.16 Q117.21 1279.41 120.265 1274.83 Q123.344 1270.22 129.154 1270.22 Z" fill="#000000" fill-rule="nonzero" fill-opacity="1" /><path clip-path="url(#clip540)" d="M149.316 1299.53 L154.2 1299.53 L154.2 1305.41 L149.316 1305.41 L149.316 1299.53 Z" fill="#000000" fill-rule="nonzero" fill-opacity="1" /><path clip-path="url(#clip540)" d="M168.413 1301.47 L184.733 1301.47 L184.733 1305.41 L162.788 1305.41 L162.788 1301.47 Q165.45 1298.72 170.034 1294.09 Q174.64 1289.44 175.821 1288.09 Q178.066 1285.57 178.946 1283.84 Q179.848 1282.08 179.848 1280.39 Q179.848 1277.63 177.904 1275.9 Q175.983 1274.16 172.881 1274.16 Q170.682 1274.16 168.228 1274.92 Q165.798 1275.69 163.02 1277.24 L163.02 1272.52 Q165.844 1271.38 168.297 1270.8 Q170.751 1270.22 172.788 1270.22 Q178.159 1270.22 181.353 1272.91 Q184.547 1275.6 184.547 1280.09 Q184.547 1282.22 183.737 1284.14 Q182.95 1286.03 180.844 1288.63 Q180.265 1289.3 177.163 1292.52 Q174.061 1295.71 168.413 1301.47 Z" fill="#000000" fill-rule="nonzero" fill-opacity="1" /><path clip-path="url(#clip540)" d="M194.594 1270.85 L212.95 1270.85 L212.95 1274.78 L198.876 1274.78 L198.876 1283.26 Q199.895 1282.91 200.913 1282.75 Q201.932 1282.56 202.95 1282.56 Q208.737 1282.56 212.117 1285.73 Q215.496 1288.91 215.496 1294.32 Q215.496 1299.9 212.024 1303 Q208.552 1306.08 202.233 1306.08 Q200.057 1306.08 197.788 1305.71 Q195.543 1305.34 193.135 1304.6 L193.135 1299.9 Q195.219 1301.03 197.441 1301.59 Q199.663 1302.15 202.14 1302.15 Q206.145 1302.15 208.482 1300.04 Q210.82 1297.93 210.82 1294.32 Q210.82 1290.71 208.482 1288.6 Q206.145 1286.5 202.14 1286.5 Q200.265 1286.5 198.39 1286.91 Q196.538 1287.33 194.594 1288.21 L194.594 1270.85 Z" fill="#000000" fill-rule="nonzero" fill-opacity="1" /><path clip-path="url(#clip540)" d="M128.159 875.683 Q124.548 875.683 122.719 879.248 Q120.913 882.789 120.913 889.919 Q120.913 897.025 122.719 900.59 Q124.548 904.132 128.159 904.132 Q131.793 904.132 133.599 900.59 Q135.427 897.025 135.427 889.919 Q135.427 882.789 133.599 879.248 Q131.793 875.683 128.159 875.683 M128.159 871.979 Q133.969 871.979 137.025 876.586 Q140.103 881.169 140.103 889.919 Q140.103 898.646 137.025 903.252 Q133.969 907.835 128.159 907.835 Q122.349 907.835 119.27 903.252 Q116.214 898.646 116.214 889.919 Q116.214 881.169 119.27 876.586 Q122.349 871.979 128.159 871.979 Z" fill="#000000" fill-rule="nonzero" fill-opacity="1" /><path clip-path="url(#clip540)" d="M148.321 901.284 L153.205 901.284 L153.205 907.164 L148.321 907.164 L148.321 901.284 Z" fill="#000000" fill-rule="nonzero" fill-opacity="1" /><path clip-path="url(#clip540)" d="M163.436 872.604 L181.793 872.604 L181.793 876.539 L167.719 876.539 L167.719 885.011 Q168.737 884.664 169.756 884.502 Q170.774 884.317 171.793 884.317 Q177.58 884.317 180.959 887.488 Q184.339 890.66 184.339 896.076 Q184.339 901.655 180.867 904.757 Q177.395 907.835 171.075 907.835 Q168.899 907.835 166.631 907.465 Q164.385 907.095 161.978 906.354 L161.978 901.655 Q164.061 902.789 166.284 903.345 Q168.506 903.9 170.983 903.9 Q174.987 903.9 177.325 901.794 Q179.663 899.687 179.663 896.076 Q179.663 892.465 177.325 890.359 Q174.987 888.252 170.983 888.252 Q169.108 888.252 167.233 888.669 Q165.381 889.085 163.436 889.965 L163.436 872.604 Z" fill="#000000" fill-rule="nonzero" fill-opacity="1" /><path clip-path="url(#clip540)" d="M203.552 875.683 Q199.941 875.683 198.112 879.248 Q196.307 882.789 196.307 889.919 Q196.307 897.025 198.112 900.59 Q199.941 904.132 203.552 904.132 Q207.186 904.132 208.992 900.59 Q210.82 897.025 210.82 889.919 Q210.82 882.789 208.992 879.248 Q207.186 875.683 203.552 875.683 M203.552 871.979 Q209.362 871.979 212.418 876.586 Q215.496 881.169 215.496 889.919 Q215.496 898.646 212.418 903.252 Q209.362 907.835 203.552 907.835 Q197.742 907.835 194.663 903.252 Q191.608 898.646 191.608 889.919 Q191.608 881.169 194.663 876.586 Q197.742 871.979 203.552 871.979 Z" fill="#000000" fill-rule="nonzero" fill-opacity="1" /><path clip-path="url(#clip540)" d="M129.154 477.437 Q125.543 477.437 123.714 481.002 Q121.909 484.544 121.909 491.673 Q121.909 498.78 123.714 502.344 Q125.543 505.886 129.154 505.886 Q132.788 505.886 134.594 502.344 Q136.423 498.78 136.423 491.673 Q136.423 484.544 134.594 481.002 Q132.788 477.437 129.154 477.437 M129.154 473.733 Q134.964 473.733 138.02 478.34 Q141.099 482.923 141.099 491.673 Q141.099 500.4 138.02 505.006 Q134.964 509.59 129.154 509.59 Q123.344 509.59 120.265 505.006 Q117.21 500.4 117.21 491.673 Q117.21 482.923 120.265 478.34 Q123.344 473.733 129.154 473.733 Z" fill="#000000" fill-rule="nonzero" fill-opacity="1" /><path clip-path="url(#clip540)" d="M149.316 503.039 L154.2 503.039 L154.2 508.918 L149.316 508.918 L149.316 503.039 Z" fill="#000000" fill-rule="nonzero" fill-opacity="1" /><path clip-path="url(#clip540)" d="M163.205 474.358 L185.427 474.358 L185.427 476.349 L172.881 508.918 L167.997 508.918 L179.802 478.294 L163.205 478.294 L163.205 474.358 Z" fill="#000000" fill-rule="nonzero" fill-opacity="1" /><path clip-path="url(#clip540)" d="M194.594 474.358 L212.95 474.358 L212.95 478.294 L198.876 478.294 L198.876 486.766 Q199.895 486.419 200.913 486.257 Q201.932 486.071 202.95 486.071 Q208.737 486.071 212.117 489.243 Q215.496 492.414 215.496 497.831 Q215.496 503.409 212.024 506.511 Q208.552 509.59 202.233 509.59 Q200.057 509.59 197.788 509.219 Q195.543 508.849 193.135 508.108 L193.135 503.409 Q195.219 504.543 197.441 505.099 Q199.663 505.655 202.14 505.655 Q206.145 505.655 208.482 503.548 Q210.82 501.442 210.82 497.831 Q210.82 494.219 208.482 492.113 Q206.145 490.006 202.14 490.006 Q200.265 490.006 198.39 490.423 Q196.538 490.84 194.594 491.719 L194.594 474.358 Z" fill="#000000" fill-rule="nonzero" fill-opacity="1" /><path clip-path="url(#clip540)" d="M118.969 106.738 L126.608 106.738 L126.608 80.372 L118.298 82.0387 L118.298 77.7795 L126.562 76.1128 L131.238 76.1128 L131.238 106.738 L138.876 106.738 L138.876 110.673 L118.969 110.673 L118.969 106.738 Z" fill="#000000" fill-rule="nonzero" fill-opacity="1" /><path clip-path="url(#clip540)" d="M148.321 104.793 L153.205 104.793 L153.205 110.673 L148.321 110.673 L148.321 104.793 Z" fill="#000000" fill-rule="nonzero" fill-opacity="1" /><path clip-path="url(#clip540)" d="M173.39 79.1915 Q169.779 79.1915 167.95 82.7563 Q166.145 86.2979 166.145 93.4275 Q166.145 100.534 167.95 104.099 Q169.779 107.64 173.39 107.64 Q177.024 107.64 178.83 104.099 Q180.659 100.534 180.659 93.4275 Q180.659 86.2979 178.83 82.7563 Q177.024 79.1915 173.39 79.1915 M173.39 75.4878 Q179.2 75.4878 182.256 80.0943 Q185.334 84.6776 185.334 93.4275 Q185.334 102.154 182.256 106.761 Q179.2 111.344 173.39 111.344 Q167.58 111.344 164.501 106.761 Q161.446 102.154 161.446 93.4275 Q161.446 84.6776 164.501 80.0943 Q167.58 75.4878 173.39 75.4878 Z" fill="#000000" fill-rule="nonzero" fill-opacity="1" /><path clip-path="url(#clip540)" d="M203.552 79.1915 Q199.941 79.1915 198.112 82.7563 Q196.307 86.2979 196.307 93.4275 Q196.307 100.534 198.112 104.099 Q199.941 107.64 203.552 107.64 Q207.186 107.64 208.992 104.099 Q210.82 100.534 210.82 93.4275 Q210.82 86.2979 208.992 82.7563 Q207.186 79.1915 203.552 79.1915 M203.552 75.4878 Q209.362 75.4878 212.418 80.0943 Q215.496 84.6776 215.496 93.4275 Q215.496 102.154 212.418 106.761 Q209.362 111.344 203.552 111.344 Q197.742 111.344 194.663 106.761 Q191.608 102.154 191.608 93.4275 Q191.608 84.6776 194.663 80.0943 Q197.742 75.4878 203.552 75.4878 Z" fill="#000000" fill-rule="nonzero" fill-opacity="1" /><path clip-path="url(#clip540)" d="M14.1184 1014.81 L14.1184 987.503 L19.5293 987.503 L19.5293 1008.38 L33.5338 1008.38 L33.5338 989.54 L38.9447 989.54 L38.9447 1008.38 L61.6384 1008.38 L61.6384 1014.81 L14.1184 1014.81 Z" fill="#000000" fill-rule="nonzero" fill-opacity="1" /><path clip-path="url(#clip540)" d="M31.465 961.658 Q30.8921 962.645 30.6375 963.823 Q30.351 964.968 30.351 966.369 Q30.351 971.334 33.5975 974.008 Q36.8122 976.649 42.8596 976.649 L61.6384 976.649 L61.6384 982.538 L25.9905 982.538 L25.9905 976.649 L31.5287 976.649 Q28.2821 974.803 26.7225 971.843 Q25.1311 968.883 25.1311 964.65 Q25.1311 964.045 25.2266 963.313 Q25.2903 962.581 25.4494 961.69 L31.465 961.658 Z" fill="#000000" fill-rule="nonzero" fill-opacity="1" /><path clip-path="url(#clip540)" d="M43.719 939.315 Q43.719 946.412 45.3422 949.15 Q46.9655 951.887 50.8804 951.887 Q53.9996 951.887 55.8457 949.85 Q57.6599 947.781 57.6599 944.248 Q57.6599 939.378 54.2224 936.45 Q50.7531 933.49 45.0239 933.49 L43.719 933.49 L43.719 939.315 M41.3 927.633 L61.6384 927.633 L61.6384 933.49 L56.2276 933.49 Q59.4741 935.495 61.0337 938.487 Q62.5615 941.479 62.5615 945.808 Q62.5615 951.282 59.5059 954.529 Q56.4186 957.743 51.2623 957.743 Q45.2467 957.743 42.1912 953.733 Q39.1357 949.691 39.1357 941.702 L39.1357 933.49 L38.5628 933.49 Q34.5205 933.49 32.3244 936.164 Q30.0964 938.805 30.0964 943.611 Q30.0964 946.667 30.8284 949.563 Q31.5605 952.46 33.0246 955.133 L27.6137 955.133 Q26.3724 951.919 25.7677 948.895 Q25.1311 945.871 25.1311 943.007 Q25.1311 935.272 29.1415 931.453 Q33.1519 927.633 41.3 927.633 Z" fill="#000000" fill-rule="nonzero" fill-opacity="1" /><path clip-path="url(#clip540)" d="M27.3591 889.917 L32.8336 889.917 Q31.465 892.399 30.7966 894.914 Q30.0964 897.396 30.0964 899.943 Q30.0964 905.64 33.7248 908.791 Q37.3214 911.942 43.8463 911.942 Q50.3711 911.942 53.9996 908.791 Q57.5962 905.64 57.5962 899.943 Q57.5962 897.396 56.9278 894.914 Q56.2276 892.399 54.859 889.917 L60.2698 889.917 Q61.4156 892.367 61.9886 895.009 Q62.5615 897.619 62.5615 900.579 Q62.5615 908.632 57.5007 913.374 Q52.44 918.117 43.8463 918.117 Q35.1253 918.117 30.1282 913.342 Q25.1311 908.536 25.1311 900.197 Q25.1311 897.492 25.704 894.914 Q26.2451 892.336 27.3591 889.917 Z" fill="#000000" fill-rule="nonzero" fill-opacity="1" /><path clip-path="url(#clip540)" d="M15.869 873.939 L25.9905 873.939 L25.9905 861.876 L30.542 861.876 L30.542 873.939 L49.8937 873.939 Q54.2542 873.939 55.4955 872.761 Q56.7368 871.552 56.7368 867.891 L56.7368 861.876 L61.6384 861.876 L61.6384 867.891 Q61.6384 874.671 59.124 877.249 Q56.5777 879.827 49.8937 879.827 L30.542 879.827 L30.542 884.124 L25.9905 884.124 L25.9905 879.827 L15.869 879.827 L15.869 873.939 Z" fill="#000000" fill-rule="nonzero" fill-opacity="1" /><path clip-path="url(#clip540)" d="M25.9905 854.173 L25.9905 848.317 L61.6384 848.317 L61.6384 854.173 L25.9905 854.173 M12.1132 854.173 L12.1132 848.317 L19.5293 848.317 L19.5293 854.173 L12.1132 854.173 Z" fill="#000000" fill-rule="nonzero" fill-opacity="1" /><path clip-path="url(#clip540)" d="M30.0964 822.249 Q30.0964 826.96 33.7885 829.697 Q37.4488 832.434 43.8463 832.434 Q50.2438 832.434 53.9359 829.729 Q57.5962 826.992 57.5962 822.249 Q57.5962 817.57 53.9041 814.833 Q50.212 812.096 43.8463 812.096 Q37.5124 812.096 33.8203 814.833 Q30.0964 817.57 30.0964 822.249 M25.1311 822.249 Q25.1311 814.61 30.0964 810.25 Q35.0616 805.889 43.8463 805.889 Q52.5991 805.889 57.5962 810.25 Q62.5615 814.61 62.5615 822.249 Q62.5615 829.92 57.5962 834.28 Q52.5991 838.609 43.8463 838.609 Q35.0616 838.609 30.0964 834.28 Q25.1311 829.92 25.1311 822.249 Z" fill="#000000" fill-rule="nonzero" fill-opacity="1" /><path clip-path="url(#clip540)" d="M40.1224 766.549 L61.6384 766.549 L61.6384 772.406 L40.3133 772.406 Q35.2526 772.406 32.7381 774.379 Q30.2237 776.352 30.2237 780.299 Q30.2237 785.042 33.2474 787.779 Q36.2711 790.516 41.491 790.516 L61.6384 790.516 L61.6384 796.404 L25.9905 796.404 L25.9905 790.516 L31.5287 790.516 Q28.314 788.415 26.7225 785.583 Q25.1311 782.718 25.1311 778.994 Q25.1311 772.851 28.9505 769.7 Q32.7381 766.549 40.1224 766.549 Z" fill="#000000" fill-rule="nonzero" fill-opacity="1" /><polyline clip-path="url(#clip542)" style="stroke:#000000; stroke-linecap:round; stroke-linejoin:round; stroke-width:4; stroke-opacity:1; fill:none" points="323.315,94.9858 335.643,95.4927 347.972,96.1202 360.3,96.8966 372.628,97.8578 384.957,99.0473 397.285,100.518 409.614,102.336 421.942,104.582 434.271,107.354 446.599,110.772 458.928,114.986 471.256,120.17 483.585,126.538 495.913,134.346 508.241,143.896 520.57,155.534 532.898,169.677 545.227,186.788 557.555,207.36 569.884,231.95 582.212,261.13 594.541,295.432 606.869,335.304 619.198,381.131 631.526,433.072 643.854,490.993 656.183,554.473 668.511,622.77 680.84,694.808 693.168,769.229 705.497,844.465 717.825,918.968 730.154,991.337 742.482,1060.29 754.811,1124.83 767.139,1184.34 779.467,1238.5 791.796,1287.24 804.124,1330.67 816.453,1369.09 828.781,1402.91 841.11,1432.54 853.438,1458.43 865.767,1481.02 878.095,1500.72 890.424,1517.89 902.752,1532.87 915.08,1545.96 927.409,1557.42 939.737,1567.47 952.066,1576.3 964.394,1584.07 976.723,1590.93 989.051,1597.01 1001.38,1602.41 1013.71,1607.21 1026.04,1611.49 1038.36,1615.31 1050.69,1618.74 1063.02,1621.82 1075.35,1624.59 1087.68,1627.09 1100.01,1629.36 1112.34,1631.4 1124.66,1633.26 1136.99,1634.95 1149.32,1636.49 1161.65,1637.9 1173.98,1639.18 1186.31,1640.35 1198.63,1641.43 1210.96,1642.41 1223.29,1643.32 1235.62,1644.15 1247.95,1644.92 1260.28,1645.62 1272.61,1646.27 1284.93,1646.88 1297.26,1647.43 1309.59,1647.95 1321.92,1648.42 1334.25,1648.86 1346.58,1649.27 1358.9,1649.65 1371.23,1650 1383.56,1650.33 1395.89,1650.63 1408.22,1650.91 1420.55,1651.17 1432.88,1651.42 1445.2,1651.65 1457.53,1651.86 1469.86,1652.05 1482.19,1652.24 1494.52,1652.41 1506.85,1652.57 1519.17,1652.71 1531.5,1652.85 1543.83,1652.98 1556.16,1653.1 1568.49,1653.22 1580.82,1653.32 1593.15,1653.42 1605.47,1653.51 1617.8,1653.6 1630.13,1653.68 1642.46,1653.75 1654.79,1653.82 1667.12,1653.88 1679.44,1653.95 1691.77,1654 1704.1,1654.06 1716.43,1654.11 1728.76,1654.15 1741.09,1654.2 1753.42,1654.24 1765.74,1654.27 1778.07,1654.31 1790.4,1654.34 1802.73,1654.38 1815.06,1654.4 1827.39,1654.43 1839.71,1654.46 1852.04,1654.48 1864.37,1654.5 1876.7,1654.52 1889.03,1654.54 1901.36,1654.56 1913.69,1654.58 1926.01,1654.6 1938.34,1654.61 1950.67,1654.62 1963,1654.64 1975.33,1654.65 1987.66,1654.66 1999.98,1654.67 2012.31,1654.68 2024.64,1654.69 2036.97,1654.7 2049.3,1654.71 2061.63,1654.72 2073.96,1654.72 2086.28,1654.73 2098.61,1654.74 2110.94,1654.74 2123.27,1654.75 2135.6,1654.75 2147.93,1654.76 2160.25,1654.76 2172.58,1654.77 2184.91,1654.77 2197.24,1654.78 2209.57,1654.78 2221.9,1654.78 2234.23,1654.79 2246.55,1654.79 2258.88,1654.79 2271.21,1654.79 2283.54,1654.8 2295.87,1654.8 2308.2,1654.8 2320.52,1654.8 2332.85,1654.8 2345.18,1654.81 2357.51,1654.81 2369.84,1654.81 2382.17,1654.81 2394.5,1654.81 2406.82,1654.81 2419.15,1654.81 2431.48,1654.81 2443.81,1654.82 2456.14,1654.82 2468.47,1654.82 2480.79,1654.82 2493.12,1654.82 2505.45,1654.82 2517.78,1654.82 2530.11,1654.82 2542.44,1654.82 2554.76,1654.82 2567.09,1654.82 2573.26,1654.82 "/>
<polyline clip-path="url(#clip542)" style="stroke:#ff0000; stroke-linecap:round; stroke-linejoin:round; stroke-width:4; stroke-opacity:1; fill:none" points="323.315,1684.78 335.643,1684.4 347.972,1683.93 360.3,1683.35 372.628,1682.63 384.957,1681.74 397.285,1680.64 409.614,1679.28 421.942,1677.59 434.271,1675.52 446.599,1672.97 458.928,1669.82 471.256,1665.95 483.585,1661.21 495.913,1655.4 508.241,1648.3 520.57,1639.68 532.898,1629.24 545.227,1616.64 557.555,1601.57 569.884,1583.66 582.212,1562.55 594.541,1537.95 606.869,1509.67 619.198,1477.58 631.526,1441.82 643.854,1402.74 656.183,1360.99 668.511,1317.49 680.84,1273.37 693.168,1230.01 705.497,1188.86 717.825,1151.26 730.154,1118.33 742.482,1090.96 754.811,1069.74 767.139,1054.85 779.467,1046.14 791.796,1043.28 804.124,1045.72 816.453,1052.83 828.781,1063.9 841.11,1078.23 853.438,1095.18 865.767,1114.15 878.095,1134.61 890.424,1156.09 902.752,1178.2 915.08,1200.61 927.409,1223.04 939.737,1245.29 952.066,1267.19 964.394,1288.59 976.723,1309.39 989.051,1329.52 1001.38,1348.91 1013.71,1367.55 1026.04,1385.4 1038.36,1402.46 1050.69,1418.73 1063.02,1434.21 1075.35,1448.91 1087.68,1462.87 1100.01,1476.1 1112.34,1488.62 1124.66,1500.46 1136.99,1511.65 1149.32,1522.21 1161.65,1532.17 1173.98,1541.56 1186.31,1550.42 1198.63,1558.75 1210.96,1566.6 1223.29,1573.98 1235.62,1580.93 1247.95,1587.46 1260.28,1593.59 1272.61,1599.36 1284.93,1604.78 1297.26,1609.87 1309.59,1614.65 1321.92,1619.13 1334.25,1623.34 1346.58,1627.29 1358.9,1631 1371.23,1634.48 1383.56,1637.74 1395.89,1640.8 1408.22,1643.67 1420.55,1646.36 1432.88,1648.89 1445.2,1651.25 1457.53,1653.47 1469.86,1655.55 1482.19,1657.5 1494.52,1659.32 1506.85,1661.03 1519.17,1662.64 1531.5,1664.14 1543.83,1665.55 1556.16,1666.87 1568.49,1668.1 1580.82,1669.26 1593.15,1670.35 1605.47,1671.36 1617.8,1672.32 1630.13,1673.21 1642.46,1674.04 1654.79,1674.83 1667.12,1675.56 1679.44,1676.25 1691.77,1676.89 1704.1,1677.49 1716.43,1678.06 1728.76,1678.59 1741.09,1679.08 1753.42,1679.54 1765.74,1679.98 1778.07,1680.38 1790.4,1680.77 1802.73,1681.12 1815.06,1681.46 1827.39,1681.77 1839.71,1682.06 1852.04,1682.34 1864.37,1682.59 1876.7,1682.83 1889.03,1683.06 1901.36,1683.27 1913.69,1683.47 1926.01,1683.65 1938.34,1683.83 1950.67,1683.99 1963,1684.14 1975.33,1684.28 1987.66,1684.42 1999.98,1684.54 2012.31,1684.66 2024.64,1684.77 2036.97,1684.87 2049.3,1684.96 2061.63,1685.05 2073.96,1685.14 2086.28,1685.22 2098.61,1685.29 2110.94,1685.36 2123.27,1685.42 2135.6,1685.48 2147.93,1685.54 2160.25,1685.59 2172.58,1685.64 2184.91,1685.69 2197.24,1685.73 2209.57,1685.78 2221.9,1685.81 2234.23,1685.85 2246.55,1685.88 2258.88,1685.91 2271.21,1685.94 2283.54,1685.97 2295.87,1686 2308.2,1686.02 2320.52,1686.04 2332.85,1686.06 2345.18,1686.08 2357.51,1686.1 2369.84,1686.12 2382.17,1686.14 2394.5,1686.15 2406.82,1686.17 2419.15,1686.18 2431.48,1686.19 2443.81,1686.2 2456.14,1686.21 2468.47,1686.22 2480.79,1686.23 2493.12,1686.24 2505.45,1686.25 2517.78,1686.26 2530.11,1686.27 2542.44,1686.27 2554.76,1686.28 2567.09,1686.29 2573.26,1686.29 "/>
<polyline clip-path="url(#clip542)" style="stroke:#008000; stroke-linecap:round; stroke-linejoin:round; stroke-width:4; stroke-opacity:1; fill:none" points="323.315,1686.38 335.643,1686.25 347.972,1686.09 360.3,1685.9 372.628,1685.66 384.957,1685.36 397.285,1684.99 409.614,1684.53 421.942,1683.97 434.271,1683.27 446.599,1682.4 458.928,1681.34 471.256,1680.02 483.585,1678.4 495.913,1676.4 508.241,1673.94 520.57,1670.93 532.898,1667.23 545.227,1662.71 557.555,1657.21 569.884,1650.53 582.212,1642.46 594.541,1632.76 606.869,1621.17 619.198,1607.43 631.526,1591.26 643.854,1572.41 656.183,1550.68 668.511,1525.89 680.84,1497.96 693.168,1466.9 705.497,1432.82 717.825,1395.92 730.154,1356.48 742.482,1314.89 754.811,1271.57 767.139,1226.95 779.467,1181.5 791.796,1135.63 804.124,1089.75 816.453,1044.22 828.781,999.341 841.11,955.374 853.438,912.526 865.767,870.966 878.095,830.818 890.424,792.167 902.752,755.075 915.08,719.576 927.409,685.681 939.737,653.383 952.066,622.661 964.394,593.485 976.723,565.819 989.051,539.614 1001.38,514.822 1013.71,491.388 1026.04,469.256 1038.36,448.372 1050.69,428.678 1063.02,410.118 1075.35,392.636 1087.68,376.177 1100.01,360.689 1112.34,346.12 1124.66,332.422 1136.99,319.545 1149.32,307.446 1161.65,296.078 1173.98,285.402 1186.31,275.378 1198.63,265.967 1210.96,257.134 1223.29,248.845 1235.62,241.068 1247.95,233.771 1260.28,226.927 1272.61,220.508 1284.93,214.488 1297.26,208.843 1309.59,203.551 1321.92,198.589 1334.25,193.938 1346.58,189.578 1358.9,185.492 1371.23,181.662 1383.56,178.073 1395.89,174.71 1408.22,171.558 1420.55,168.605 1432.88,165.838 1445.2,163.246 1457.53,160.817 1469.86,158.542 1482.19,156.41 1494.52,154.414 1506.85,152.543 1519.17,150.791 1531.5,149.149 1543.83,147.612 1556.16,146.172 1568.49,144.823 1580.82,143.56 1593.15,142.377 1605.47,141.269 1617.8,140.231 1630.13,139.259 1642.46,138.349 1654.79,137.497 1667.12,136.698 1679.44,135.95 1691.77,135.25 1704.1,134.594 1716.43,133.98 1728.76,133.405 1741.09,132.867 1753.42,132.363 1765.74,131.89 1778.07,131.448 1790.4,131.034 1802.73,130.646 1815.06,130.283 1827.39,129.943 1839.71,129.624 1852.04,129.326 1864.37,129.047 1876.7,128.785 1889.03,128.54 1901.36,128.311 1913.69,128.097 1926.01,127.896 1938.34,127.707 1950.67,127.531 1963,127.366 1975.33,127.212 1987.66,127.067 1999.98,126.931 2012.31,126.804 2024.64,126.686 2036.97,126.574 2049.3,126.47 2061.63,126.373 2073.96,126.281 2086.28,126.196 2098.61,126.116 2110.94,126.041 2123.27,125.971 2135.6,125.905 2147.93,125.843 2160.25,125.786 2172.58,125.732 2184.91,125.681 2197.24,125.634 2209.57,125.589 2221.9,125.548 2234.23,125.509 2246.55,125.473 2258.88,125.439 2271.21,125.407 2283.54,125.377 2295.87,125.349 2308.2,125.323 2320.52,125.298 2332.85,125.275 2345.18,125.254 2357.51,125.234 2369.84,125.215 2382.17,125.197 2394.5,125.181 2406.82,125.165 2419.15,125.151 2431.48,125.137 2443.81,125.124 2456.14,125.113 2468.47,125.101 2480.79,125.091 2493.12,125.081 2505.45,125.072 2517.78,125.064 2530.11,125.056 2542.44,125.048 2554.76,125.041 2567.09,125.034 2573.26,125.031 "/>
<path clip-path="url(#clip540)" d="M2295.84 1024.67 L2561.26 1024.67 L2561.26 817.31 L2295.84 817.31  Z" fill="#ffffff" fill-rule="evenodd" fill-opacity="1"/>
<polyline clip-path="url(#clip540)" style="stroke:#000000; stroke-linecap:round; stroke-linejoin:round; stroke-width:4; stroke-opacity:1; fill:none" points="2295.84,1024.67 2561.26,1024.67 2561.26,817.31 2295.84,817.31 2295.84,1024.67 "/>
<polyline clip-path="url(#clip540)" style="stroke:#000000; stroke-linecap:round; stroke-linejoin:round; stroke-width:4; stroke-opacity:1; fill:none" points="2322.34,869.15 2481.34,869.15 "/>
<path clip-path="url(#clip540)" d="M2530.08 853.004 L2530.08 857.564 Q2527.42 856.291 2525.06 855.666 Q2522.7 855.041 2520.5 855.041 Q2516.68 855.041 2514.6 856.522 Q2512.54 858.004 2512.54 860.735 Q2512.54 863.027 2513.9 864.208 Q2515.29 865.365 2519.13 866.083 L2521.96 866.661 Q2527.19 867.657 2529.67 870.18 Q2532.17 872.68 2532.17 876.893 Q2532.17 881.916 2528.79 884.508 Q2525.43 887.101 2518.93 887.101 Q2516.47 887.101 2513.69 886.545 Q2510.94 885.99 2507.98 884.902 L2507.98 880.087 Q2510.82 881.684 2513.56 882.494 Q2516.29 883.305 2518.93 883.305 Q2522.93 883.305 2525.11 881.731 Q2527.28 880.157 2527.28 877.24 Q2527.28 874.694 2525.71 873.258 Q2524.16 871.823 2520.59 871.106 L2517.74 870.55 Q2512.51 869.508 2510.18 867.286 Q2507.84 865.064 2507.84 861.106 Q2507.84 856.522 2511.06 853.884 Q2514.3 851.245 2519.97 851.245 Q2522.4 851.245 2524.92 851.684 Q2527.44 852.124 2530.08 853.004 Z" fill="#000000" fill-rule="nonzero" fill-opacity="1" /><polyline clip-path="url(#clip540)" style="stroke:#ff0000; stroke-linecap:round; stroke-linejoin:round; stroke-width:4; stroke-opacity:1; fill:none" points="2322.34,920.99 2481.34,920.99 "/>
<path clip-path="url(#clip540)" d="M2507.84 903.71 L2512.51 903.71 L2512.51 938.27 L2507.84 938.27 L2507.84 903.71 Z" fill="#000000" fill-rule="nonzero" fill-opacity="1" /><polyline clip-path="url(#clip540)" style="stroke:#008000; stroke-linecap:round; stroke-linejoin:round; stroke-width:4; stroke-opacity:1; fill:none" points="2322.34,972.83 2481.34,972.83 "/>
<path clip-path="url(#clip540)" d="M2524.23 973.906 Q2525.73 974.415 2527.14 976.082 Q2528.58 977.749 2530.01 980.665 L2534.76 990.11 L2529.74 990.11 L2525.31 981.244 Q2523.6 977.772 2521.98 976.637 Q2520.38 975.503 2517.61 975.503 L2512.51 975.503 L2512.51 990.11 L2507.84 990.11 L2507.84 955.55 L2518.39 955.55 Q2524.32 955.55 2527.24 958.026 Q2530.15 960.503 2530.15 965.503 Q2530.15 968.767 2528.62 970.92 Q2527.12 973.073 2524.23 973.906 M2512.51 959.392 L2512.51 971.661 L2518.39 971.661 Q2521.77 971.661 2523.49 970.11 Q2525.22 968.536 2525.22 965.503 Q2525.22 962.471 2523.49 960.943 Q2521.77 959.392 2518.39 959.392 L2512.51 959.392 Z" fill="#000000" fill-rule="nonzero" fill-opacity="1" /></svg>
